<svg xmlns="http://www.w3.org/2000/svg" viewBox="0 0 80 80"><defs><style>.cls-1,.cls-2{fill:none;stroke-width:2.34px;}.cls-1{stroke:#ed1944;}.cls-1,.cls-2,.cls-3{stroke-miterlimit:10;}.cls-2,.cls-3{stroke:#222160;}.cls-3{fill:#fff;}</style></defs><g id="Layer_2" data-name="Layer 2"><line class="cls-1" x1="39.43" y1="16.56" x2="41.42" y2="16.56"/><line class="cls-1" x1="35.54" y1="16.56" x2="37.52" y2="16.56"/><line class="cls-1" x1="43.33" y1="16.56" x2="45.32" y2="16.56"/><path class="cls-2" d="M49.75,48.14a10,10,0,0,0-.15-1.66L53,44.06l-3-5.27-3.83,1.75A9.75,9.75,0,0,0,43.37,39L43,34.69H36.88L36.46,39a9.79,9.79,0,0,0-2.64,1.53l-4-1.82-3,5.27,3.52,2.51a10,10,0,0,0-.14,1.66,9.36,9.36,0,0,0,.1,1.41l-3.53,2.52,3,5.27,3.83-1.75a9.81,9.81,0,0,0,2.76,1.66l.4,4.19h6.09l.39-4.08a9.71,9.71,0,0,0,2.89-1.64l3.76,1.71,3-5.27L49.6,49.78A8.85,8.85,0,0,0,49.75,48.14Z"/><polygon class="cls-2" points="58.17 7.14 22.09 7.14 3.88 25.86 3.88 26.09 3.88 43.31 3.88 70.23 12.87 70.23 66.85 70.23 76.21 70.23 76.21 43.42 76.21 26 76.21 25.98 58.17 7.14"/><line class="cls-2" x1="3.56" y1="25.74" x2="76.18" y2="25.74"/><circle class="cls-3" cx="40.11" cy="48.16" r="4.52"/></g></svg>