<svg xmlns="http://www.w3.org/2000/svg" viewBox="0 0 80 80"><defs><style>.cls-1{fill:#e61e2a;}.cls-2,.cls-3{fill:none;stroke:#222160;stroke-miterlimit:10;stroke-width:2.34px;}.cls-3{fill-rule:evenodd;}</style></defs><g id="Layer_2" data-name="Layer 2"><path class="cls-1" d="M44.71,25.32v1.23H42.25v2.52H40.41v3.68h1.84v2.52h2.46V36.5H46A5.72,5.72,0,0,0,51.77,31a5.61,5.61,0,0,0-5.59-5.59l-1.47-.06Z"/><path class="cls-2" d="M13.19,62.38a35.5,35.5,0,1,1,4.43,4.43"/><path class="cls-2" d="M36.37,43.69l3.11-2.07a6.55,6.55,0,0,1,3.72-1.18,4.52,4.52,0,0,1,3.32,1.42l.77.84c1.13,1.22,2.26,2.44,3.45,3.59a8.17,8.17,0,0,0,5.62,2.26h.28a7.19,7.19,0,0,0,5.13-2.32A24.74,24.74,0,0,0,66.84,38c1.12-3.19,1.16-4.9-.91-8.21l-9-12.9a1.3,1.3,0,0,0-2.35.76l0,4.67a.53.53,0,0,1-.3.45,1,1,0,0,1-.79.06l-3.74-3.05c-.06-.05-.15-.14,0-.5s.44-.88.69-1.41l.37-.78a1.27,1.27,0,0,0,0-1.17,1.3,1.3,0,0,0-1-.67L48.39,15c-3.59-.53-4.24-.55-5.85,1.9-.38.58-.89,1.35-1.67,2.35a.43.43,0,0,1-.25.14.39.39,0,0,1-.3-.1c-1.93-1.64-3.15-1.6-5,.15l-8.82,8.65c-2.94,2.28-3.72,4.9-2.39,8L27,42.88h0c.56,1.36.95,2.09,2.36,2.52"/><path class="cls-2" d="M60.52,51.93H53.83a1.16,1.16,0,0,0-1.14,1.4c.47,2.24,2.05,5.57,4.48,5.57.33,0,3.46-.66,4.48-5.57a1.14,1.14,0,0,0-.23-1A1.16,1.16,0,0,0,60.52,51.93Z"/><path class="cls-3" d="M25.91,49.08l4.95-5.26a3.76,3.76,0,0,1,5.32,5.32l-5.23,5L36.21,68.8l-1.84,1.09L25,59.76,17.45,67l.38,5.19-2.92,2.92-3.28-6.72L4.91,65.09l2.92-2.92,5.19.38L20.24,55,9.62,45.38l1.58-1.59Z"/></g></svg>